<?xml version="1.0" encoding="UTF-8"?>
<svg id="Camada_1" data-name="Camada 1" xmlns="http://www.w3.org/2000/svg" viewBox="0 0 30 30">
  <defs>
    <style>
      .cls-1 {
        fill: #0f192c;
      }

      .cls-1, .cls-2, .cls-3 {
        stroke-width: 0px;
      }

      .cls-2 {
        fill: #ec2d50;
      }

      .cls-3 {
        fill: #fff;
      }
    </style>
  </defs>
  <rect class="cls-1" x="2.6" y="2.6" width="24.79" height="24.79" rx="4" ry="4"/>
  <path class="cls-2" d="M15,23.94c-2.02,0-3.69-.65-5.02-1.95-1.33-1.3-2-2.88-2-4.75s.77-3.47,2-4.86,5.02-6.31,5.02-6.31c0,0,3.85,4.91,5.02,6.26s2,2.83,2,4.7-.65,3.58-1.94,4.92c-1.3,1.33-2.99,2-5.08,2Z"/>
  <path class="cls-3" d="M20.14,14.56c1.27,1.73.95,4.29-.46,5.84.15-.35.33-.7.45-1.06.59-1.53.59-3.24,0-4.78h0Z"/>
</svg>